mtllib materials.mtl
v 0.7816666 0.147222 2.384186E-07
v 0.7816666 0.147222 0.5600003
v 0.7816666 0.307222 0.5600003
v 0.7816666 0.307222 2.384186E-07
v 0.2516666 0.147222 2.384186E-07
v 0.2516666 0.307222 2.384186E-07
v 0.2516666 0.307222 0.5600003
v 0.2516666 0.147222 0.5600003
v 0.7816666 0.147222 -0.5599996
v 0.7816665 0.147222 3.576279E-07
v 0.7816665 0.307222 3.576279E-07
v 0.7816666 0.307222 -0.5599996
v 0.2516666 0.147222 -0.5599997
v 0.2516666 0.307222 -0.5599997
v 0.2516665 0.307222 2.384186E-07
v 0.2516665 0.147222 2.384186E-07
v -0.3383341 0.147222 -1.072884E-06
v 0.2516676 0.147222 -2.026558E-06
v 0.2516675 0.307222 -1.907349E-06
v -0.338334 0.307222 -1.072884E-06
v -0.3383336 0.147222 0.5600003
v -0.3383335 0.307222 0.5600003
v 0.2516672 0.307222 0.5600003
v 0.2516673 0.147222 0.5600003
v 0.2516667 0.147222 -0.5599997
v 0.2516665 0.147222 4.768372E-07
v 0.2516665 0.307222 4.768372E-07
v 0.2516667 0.307222 -0.5599997
v -0.3383333 0.147222 -0.5599998
v -0.3383333 0.307222 -0.5599998
v -0.3383334 0.307222 2.384186E-07
v -0.3383334 0.147222 2.384186E-07
v 0.7816666 -0.5727779 -0.5599998
v 0.7816666 -0.5727779 0.5600002
v 0.7816666 0.1472222 0.5600002
v 0.7816666 0.1472222 -0.5599998
v -0.2583334 -0.5727779 -0.5599998
v -0.2583334 0.1472222 -0.5599998
v -0.2583334 0.1472222 0.5600002
v -0.2583334 -0.5727779 0.5600002
v -0.3083334 -0.5327778 -0.5199996
v -0.2583334 -0.5327778 -0.5199996
v -0.2583334 0.1072221 -0.5199997
v -0.3083334 0.1072221 -0.5199997
v -0.3083333 -0.5327776 0.5200021
v -0.3083333 0.1072223 0.5200015
v -0.2583332 0.1072223 0.5200012
v -0.2583332 -0.5327776 0.5200019
v -0.3183334 -0.5327779 -0.02000105
v -0.2783334 -0.5327779 -0.02000105
v -0.2783333 0.09722197 -0.02000117
v -0.3183332 0.09722197 -0.02000117
v -0.3183334 -0.5327779 0.01999903
v -0.3183332 0.09722197 0.01999891
v -0.2783333 0.09722197 0.01999891
v -0.2783334 -0.5327779 0.01999903
v -0.3183334 -0.09414077 0.06964767
v -0.3183334 -0.1044935 0.05171621
v -0.3083333 -0.1044935 0.05171621
v -0.3083333 -0.09414077 0.06964767
v -0.3183334 -0.122425 0.04136336
v -0.3083333 -0.122425 0.04136336
v -0.3183334 -0.1431305 0.04136336
v -0.3083333 -0.1431305 0.04136336
v -0.3183334 -0.161062 0.05171609
v -0.3083333 -0.161062 0.05171609
v -0.3183334 -0.1714149 0.06964755
v -0.3083333 -0.1714149 0.06964755
v -0.3183334 -0.1714149 0.09035313
v -0.3083333 -0.1714149 0.09035313
v -0.3183334 -0.1610621 0.1082846
v -0.3083333 -0.1610621 0.1082846
v -0.3183334 -0.1431307 0.1186374
v -0.3083333 -0.1431307 0.1186374
v -0.3183334 -0.1224251 0.1186374
v -0.3083333 -0.1224251 0.1186374
v -0.3183334 -0.1044936 0.1082847
v -0.3083333 -0.1044936 0.1082847
v -0.3183334 -0.09414077 0.09035325
v -0.3083333 -0.09414077 0.09035325
v -0.3183334 -0.09414065 -0.09035373
v -0.3183334 -0.1044934 -0.1082852
v -0.3083333 -0.1044934 -0.1082852
v -0.3083333 -0.09414065 -0.09035373
v -0.3183334 -0.1224248 -0.118638
v -0.3083333 -0.1224248 -0.118638
v -0.3183334 -0.1431304 -0.118638
v -0.3083333 -0.1431304 -0.118638
v -0.3183334 -0.1610619 -0.1082853
v -0.3083333 -0.1610619 -0.1082853
v -0.3183334 -0.1714147 -0.09035385
v -0.3083333 -0.1714147 -0.09035385
v -0.3183334 -0.1714147 -0.06964827
v -0.3083333 -0.1714147 -0.06964827
v -0.3183334 -0.161062 -0.0517168
v -0.3083333 -0.161062 -0.0517168
v -0.3183334 -0.1431305 -0.04136395
v -0.3083333 -0.1431305 -0.04136395
v -0.3183334 -0.122425 -0.04136395
v -0.3083333 -0.122425 -0.04136395
v -0.3183334 -0.1044935 -0.05171669
v -0.3083333 -0.1044935 -0.05171669
v -0.3183334 -0.09414065 -0.06964815
v -0.3083333 -0.09414065 -0.06964815
vn 1 0 0
vn -1 0 0
vn 0 -1 0
vn 0 1 0
vn 0 0 -1
vn 0 0 1
vn 1 0 1.748456E-07
vn -1 0 -1.748456E-07
vn 0 -1 0
vn 0 1 0
vn 1.748456E-07 0 -1
vn -1.748456E-07 0 1
vn -1.192093E-07 0 -1
vn 1.192093E-07 0 1
vn 0 -1 0
vn 0 1 0
vn -1 0 1.192093E-07
vn 1 0 -1.192093E-07
vn 1 0 1.748456E-07
vn -1 0 -1.748456E-07
vn 0 -1 0
vn 0 1 0
vn 1.748456E-07 0 -1
vn -1.748456E-07 0 1
vn 1 0 0
vn -1 0 0
vn 0 -1 0
vn 0 1 0
vn 0 0 -1
vn 0 0 1
vn -1.192093E-07 -1.748456E-07 -1
vn 1.192093E-07 1.748456E-07 1
vn 0 -1 1.748456E-07
vn 0 1 -1.748456E-07
vn -1 0 1.192093E-07
vn 1 0 -1.192093E-07
vn -1.192093E-07 -1.748456E-07 -1
vn 1.192093E-07 1.748456E-07 1
vn -1.748456E-07 -1 1.748456E-07
vn 1.748456E-07 1 -1.748456E-07
vn -1 1.748456E-07 1.192093E-07
vn 1 -1.748456E-07 -1.192093E-07
vn -2.058793E-06 0.8660256 -0.4999998
vn 3.306179E-06 0.5000042 -0.8660231
vn -1.327635E-06 -5.646893E-09 -1
vn -2.515063E-06 -0.4999999 -0.8660256
vn 3.101289E-06 -0.866023 -0.5000042
vn -3.709794E-07 -1 -1.249273E-07
vn -1.292854E-06 -0.8660254 0.5000001
vn 4.555941E-06 -0.5000044 0.8660229
vn -3.855505E-07 1.07434E-07 1
vn -1.707655E-06 0.5000001 0.8660254
vn 3.784793E-06 0.8660229 0.5000042
vn -6.609779E-07 1 -5.646758E-09
vn -1 -8.940697E-08 2.980232E-08
vn 1 8.940697E-08 -2.980232E-08
vn -2.058793E-06 0.8660256 -0.4999998
vn 3.306179E-06 0.5000042 -0.8660231
vn -1.327635E-06 -5.646893E-09 -1
vn -2.515063E-06 -0.4999999 -0.8660256
vn 3.101289E-06 -0.866023 -0.5000042
vn -3.709794E-07 -1 -1.249273E-07
vn -1.292854E-06 -0.8660254 0.5000001
vn 4.555941E-06 -0.5000044 0.8660229
vn -3.855505E-07 1.07434E-07 1
vn -1.707655E-06 0.5000001 0.8660254
vn 3.784793E-06 0.8660229 0.5000042
vn -6.609779E-07 1 -5.646758E-09
vn -1 -8.940697E-08 2.980232E-08
vn 1 8.940697E-08 -2.980232E-08
vt 0.1897162 0.06602866
vt 0.2352852 0.03347931
vt 0.2445851 0.04649905
vt 0.199016 0.07904839
vt -0.1897162 0.06602866
vt -0.199016 0.07904839
vt -0.2445851 0.04649905
vt -0.2352852 0.03347931
vt 0.1267315 0.009955557
vt 0.1089057 -0.03995676
vt 0.1616433 -0.0587916
vt 0.1794691 -0.008879283
vt -0.1267315 0.009955557
vt -0.1794691 -0.008879283
vt -0.1616433 -0.0587916
vt -0.1089057 -0.03995676
vt -0.123431 0.1198532
vt -0.1377418 0.1270087
vt -0.1614441 0.07960402
vt -0.1471333 0.0724486
vt 0.123431 0.1198532
vt 0.1471333 0.0724486
vt 0.1614441 0.07960402
vt 0.1377418 0.1270087
vt 0.1441471 0.09857796
vt 0.1897162 0.06602861
vt 0.199016 0.07904834
vt 0.1534469 0.1115977
vt -0.1441471 0.09857796
vt -0.1534469 0.1115977
vt -0.199016 0.07904835
vt -0.1897162 0.06602861
vt 0.07399402 0.02879039
vt 0.05616818 -0.02112193
vt 0.1089057 -0.03995677
vt 0.1267316 0.009955548
vt -0.07399402 0.02879039
vt -0.1267316 0.009955548
vt -0.1089057 -0.03995677
vt -0.05616818 -0.02112193
vt -0.1234309 0.1198533
vt -0.1377418 0.1270087
vt -0.1614441 0.07960403
vt -0.1471333 0.07244861
vt 0.1234309 0.1198533
vt 0.1471333 0.07244861
vt 0.1614441 0.07960403
vt 0.1377418 0.1270087
vt -0.1735189 0.01967732
vt -0.1471332 0.07244868
vt -0.1614441 0.07960407
vt -0.1878297 0.02683274
vt 0.1735189 0.01967736
vt 0.1878297 0.02683278
vt 0.1614441 0.07960405
vt 0.1471333 0.07244864
vt 0.08906173 -0.09551956
vt 0.1417994 -0.1143544
vt 0.1616433 -0.05879154
vt 0.1089055 -0.0399566
vt -0.08906173 -0.09551956
vt -0.1089056 -0.03995661
vt -0.1616433 -0.05879155
vt -0.1417994 -0.1143544
vt -0.189716 0.06602876
vt -0.1990158 0.0790485
vt -0.244585 0.04649908
vt -0.2352852 0.03347934
vt 0.189716 0.06602882
vt 0.2352852 0.03347934
vt 0.244585 0.04649908
vt 0.1990158 0.07904854
vt 0.1441471 0.09857796
vt 0.1897162 0.0660286
vt 0.199016 0.07904833
vt 0.1534469 0.1115977
vt -0.1441471 0.09857796
vt -0.1534469 0.1115977
vt -0.199016 0.07904834
vt -0.1897162 0.06602861
vt 0.05616819 -0.02112192
vt 0.03632433 -0.07668469
vt 0.08906188 -0.09551954
vt 0.1089057 -0.03995678
vt -0.05616819 -0.02112192
vt -0.1089057 -0.03995678
vt -0.08906188 -0.09551954
vt -0.03632433 -0.07668469
vt -0.1471333 0.07244863
vt -0.1614441 0.07960404
vt -0.1878297 0.02683284
vt -0.1735189 0.01967742
vt 0.1471333 0.07244861
vt 0.1735189 0.01967742
vt 0.1878297 0.02683283
vt 0.1614441 0.07960403
vt 0.1022979 0.03998919
vt 0.1934361 -0.02510949
vt 0.2352852 0.03347933
vt 0.1441471 0.09857801
vt -0.1022979 0.03998919
vt -0.1441471 0.09857801
vt -0.2352852 0.03347933
vt -0.1934361 -0.02510949
vt 0.073994 0.0287904
vt 0.03901502 -0.06915076
vt 0.1444901 -0.1068204
vt 0.1794691 -0.00887928
vt -0.073994 0.0287904
vt -0.1794691 -0.00887928
vt -0.1444901 -0.1068204
vt -0.03901502 -0.06915076
vt -0.0590322 0.08765387
vt -0.123431 0.1198533
vt -0.1699412 0.02683282
vt -0.1055424 -0.005366561
vt 0.0590322 0.08765387
vt 0.1055424 -0.005366561
vt 0.1699412 0.02683282
vt 0.123431 0.1198533
vt -0.1113562 -0.008049854
vt -0.1091201 -0.003577712
vt -0.1663634 0.02504396
vt -0.1685995 0.02057181
vt 0.1113562 -0.008049851
vt 0.1685995 0.02057182
vt 0.1663634 0.02504396
vt 0.1091201 -0.00357771
vt 0.04110034 -0.07520483
vt 0.1390417 -0.1101839
vt 0.1407233 -0.1054751
vt 0.04278202 -0.07049611
vt -0.04110033 -0.07520483
vt -0.04278202 -0.07049611
vt -0.1407233 -0.1054751
vt -0.1390416 -0.1101838
vt -0.1078778 0.04091919
vt -0.145077 0.09299813
vt -0.2297055 0.03254931
vt -0.1925063 -0.01952966
vt 0.1078778 0.04091919
vt 0.1925063 -0.01952965
vt 0.2297054 0.03254934
vt 0.145077 0.09299813
vt -0.1118034 -0.008944287
vt -0.1100145 -0.005366581
vt -0.1663634 0.02280788
vt -0.1681523 0.01923018
vt 0.1118034 -0.008944288
vt 0.1681523 0.01923018
vt 0.1663634 0.02280788
vt 0.1100145 -0.005366582
vt 0.08785096 -0.09296335
vt 0.09161793 -0.0943087
vt 0.09296328 -0.09054174
vt 0.0891963 -0.08919639
vt -0.08785096 -0.09296335
vt -0.0891963 -0.08919639
vt -0.09296328 -0.09054174
vt -0.09161793 -0.0943087
vt -0.1485644 0.01185738
vt -0.1851823 0.0631226
vt -0.1884373 0.06079764
vt -0.1518193 0.009532426
vt 0.1485644 0.01185738
vt 0.1518193 0.009532426
vt 0.1884373 0.06079764
vt 0.1851823 0.0631226
vt -0.1726801 -0.06834079
vt -0.1706131 -0.06821823
vt -0.1706723 -0.06721998
vt -0.1727392 -0.06734253
vt -0.1895334 -0.01162317
vt -0.1875268 -0.01213373
vt -0.1872802 -0.0111646
vt -0.1892869 -0.01065404
vt -0.1485066 0.009407102
vt -0.1466546 0.008481121
vt -0.1462074 0.009375553
vt -0.1480593 0.01030153
vt -0.07873017 -0.01983755
vt -0.07696378 -0.02091784
vt -0.07644204 -0.02006474
vt -0.07820843 -0.01898444
vt 0.005159969 -0.06934056
vt 0.006967081 -0.07035127
vt 0.007455219 -0.0694785
vt 0.005648107 -0.06846778
vt 0.09629348 -0.0959786
vt 0.09824341 -0.096675
vt 0.09857975 -0.09573326
vt 0.09662981 -0.09503685
vt 0.1706131 -0.06821841
vt 0.1726801 -0.06834097
vt 0.1727392 -0.06734271
vt 0.1706723 -0.06722016
vt 0.1875269 -0.01213424
vt 0.1895335 -0.01162368
vt 0.1892869 -0.01065455
vt 0.1872803 -0.01116511
vt 0.1466545 0.008481336
vt 0.1485064 0.009407317
vt 0.1480592 0.01030175
vt 0.1462073 0.009375768
vt 0.07696336 -0.02091723
vt 0.07872975 -0.01983694
vt 0.078208 -0.01898383
vt 0.07644161 -0.02006413
vt -0.006966381 -0.07035233
vt -0.00515927 -0.06934162
vt -0.005647409 -0.06846885
vt -0.007454521 -0.06947956
vt -0.09824351 -0.09667485
vt -0.09629358 -0.09597845
vt -0.09662992 -0.0950367
vt -0.09857985 -0.09573311
vt -0.1830395 0.04113648
vt -0.1838969 0.03925179
vt -0.1836971 0.03719091
vt -0.1824936 0.03550603
vt -0.180609 0.03464863
vt -0.1785481 0.03484844
vt -0.1768632 0.03605193
vt -0.1760058 0.03793662
vt -0.1762056 0.0399975
vt -0.1774091 0.04168238
vt -0.1792938 0.04253978
vt -0.1813547 0.04233997
vt 0.1813547 0.04233997
vt 0.1792938 0.04253978
vt 0.1774091 0.04168238
vt 0.1762056 0.0399975
vt 0.1760058 0.03793662
vt 0.1768632 0.03605193
vt 0.1785481 0.03484844
vt 0.180609 0.03464863
vt 0.1824936 0.03550603
vt 0.1836971 0.03719091
vt 0.1838969 0.03925179
vt 0.1830395 0.04113648
vt -0.1588478 -0.06752059
vt -0.1567809 -0.06739803
vt -0.1568401 -0.06639978
vt -0.158907 -0.06652234
vt -0.1817804 -0.0135959
vt -0.1797737 -0.01410646
vt -0.1795271 -0.01313734
vt -0.1815338 -0.01262678
vt -0.1485066 0.009407127
vt -0.1466546 0.008481146
vt -0.1462074 0.009375578
vt -0.1480593 0.01030156
vt -0.08555504 -0.01566353
vt -0.08378865 -0.01674382
vt -0.0832669 -0.01589071
vt -0.08503329 -0.01481042
vt -0.006933548 -0.06257673
vt -0.005126436 -0.06358744
vt -0.004638298 -0.06271467
vt -0.006445411 -0.06170396
vt 0.08122548 -0.09059717
vt 0.08317541 -0.09129357
vt 0.08351175 -0.09035183
vt 0.08156182 -0.08965542
vt 0.1567809 -0.06739824
vt 0.1588478 -0.0675208
vt 0.158907 -0.06652255
vt 0.1568401 -0.06639999
vt 0.1797738 -0.01410686
vt 0.1817804 -0.0135963
vt 0.1815338 -0.01262717
vt 0.1795272 -0.01313773
vt 0.1466545 0.008481337
vt 0.1485065 0.009407318
vt 0.1480592 0.01030175
vt 0.1462073 0.009375768
vt 0.08378826 -0.01674326
vt 0.08555464 -0.01566296
vt 0.0850329 -0.01480986
vt 0.08326651 -0.01589015
vt 0.005127103 -0.06358846
vt 0.006934213 -0.06257774
vt 0.006446076 -0.06170497
vt 0.004638964 -0.06271569
vt -0.08317551 -0.09129343
vt -0.08122557 -0.09059702
vt -0.08156192 -0.08965527
vt -0.08351184 -0.09035169
vt -0.1700197 0.05043639
vt -0.1708771 0.0485517
vt -0.1706773 0.04649081
vt -0.1694738 0.04480593
vt -0.1675891 0.04394853
vt -0.1655282 0.04414834
vt -0.1638433 0.04535183
vt -0.162986 0.04723652
vt -0.1631858 0.0492974
vt -0.1643893 0.05098229
vt -0.1662739 0.05183969
vt -0.1683348 0.05163987
vt 0.1683348 0.05163987
vt 0.1662739 0.05183969
vt 0.1643893 0.05098229
vt 0.1631858 0.0492974
vt 0.162986 0.04723652
vt 0.1638433 0.04535183
vt 0.1655282 0.04414834
vt 0.1675891 0.04394853
vt 0.1694738 0.04480593
vt 0.1706773 0.04649081
vt 0.1708771 0.0485517
vt 0.1700197 0.05043638
o group102917068
g mesh102917068
usemtl mat9
f 4/4/1 3/3/1 2/2/1 1/1/1
f 8/8/2 7/7/2 6/6/2 5/5/2
f 2/12/3 8/11/3 5/10/3 1/9/3
f 6/16/4 7/15/4 3/14/4 4/13/4
f 5/20/5 6/19/5 4/18/5 1/17/5
f 3/24/6 7/23/6 8/22/6 2/21/6
f 28/76/19 27/75/19 26/74/19 25/73/19
f 32/80/20 31/79/20 30/78/20 29/77/20
f 26/84/21 32/83/21 29/82/21 25/81/21
f 30/88/22 31/87/22 27/86/22 28/85/22
f 29/92/23 30/91/23 28/90/23 25/89/23
f 27/96/24 31/95/24 32/94/24 26/93/24
usemtl mat10
f 12/28/7 11/27/7 10/26/7 9/25/7
f 16/32/8 15/31/8 14/30/8 13/29/8
f 10/36/9 16/35/9 13/34/9 9/33/9
f 14/40/10 15/39/10 11/38/10 12/37/10
f 13/44/11 14/43/11 12/42/11 9/41/11
f 11/48/12 15/47/12 16/46/12 10/45/12
f 20/52/13 19/51/13 18/50/13 17/49/13
f 24/56/14 23/55/14 22/54/14 21/53/14
f 18/60/15 24/59/15 21/58/15 17/57/15
f 22/64/16 23/63/16 19/62/16 20/61/16
f 21/68/17 22/67/17 20/66/17 17/65/17
f 19/72/18 23/71/18 24/70/18 18/69/18
usemtl mat21
f 36/100/25 35/99/25 34/98/25 33/97/25
f 40/104/26 39/103/26 38/102/26 37/101/26
f 34/108/27 40/107/27 37/106/27 33/105/27
f 38/112/28 39/111/28 35/110/28 36/109/28
f 37/116/29 38/115/29 36/114/29 33/113/29
f 35/120/30 39/119/30 40/118/30 34/117/30
usemtl mat19
f 44/124/31 43/123/31 42/122/31 41/121/31
f 48/128/32 47/127/32 46/126/32 45/125/32
f 42/132/33 48/131/33 45/130/33 41/129/33
f 46/136/34 47/135/34 43/134/34 44/133/34
f 45/140/35 46/139/35 44/138/35 41/137/35
f 43/144/36 47/143/36 48/142/36 42/141/36
usemtl mat23
f 52/148/37 51/147/37 50/146/37 49/145/37
f 56/152/38 55/151/38 54/150/38 53/149/38
f 50/156/39 56/155/39 53/154/39 49/153/39
f 54/160/40 55/159/40 51/158/40 52/157/40
f 53/164/41 54/163/41 52/162/41 49/161/41
f 51/168/42 55/167/42 56/166/42 50/165/42
f 60/172/43 59/171/43 58/170/43 57/169/43
f 59/176/44 62/175/44 61/174/44 58/173/44
f 62/180/45 64/179/45 63/178/45 61/177/45
f 64/184/46 66/183/46 65/182/46 63/181/46
f 66/188/47 68/187/47 67/186/47 65/185/47
f 68/192/48 70/191/48 69/190/48 67/189/48
f 70/196/49 72/195/49 71/194/49 69/193/49
f 72/200/50 74/199/50 73/198/50 71/197/50
f 74/204/51 76/203/51 75/202/51 73/201/51
f 76/208/52 78/207/52 77/206/52 75/205/52
f 78/212/53 80/211/53 79/210/53 77/209/53
f 80/216/54 60/215/54 57/214/54 79/213/54
f 57/228/55 58/227/55 61/226/55 63/225/55 65/224/55 67/223/55 69/222/55 71/221/55 73/220/55 75/219/55 77/218/55 79/217/55
f 80/240/56 78/239/56 76/238/56 74/237/56 72/236/56 70/235/56 68/234/56 66/233/56 64/232/56 62/231/56 59/230/56 60/229/56
f 84/244/57 83/243/57 82/242/57 81/241/57
f 83/248/58 86/247/58 85/246/58 82/245/58
f 86/252/59 88/251/59 87/250/59 85/249/59
f 88/256/60 90/255/60 89/254/60 87/253/60
f 90/260/61 92/259/61 91/258/61 89/257/61
f 92/264/62 94/263/62 93/262/62 91/261/62
f 94/268/63 96/267/63 95/266/63 93/265/63
f 96/272/64 98/271/64 97/270/64 95/269/64
f 98/276/65 100/275/65 99/274/65 97/273/65
f 100/280/66 102/279/66 101/278/66 99/277/66
f 102/284/67 104/283/67 103/282/67 101/281/67
f 104/288/68 84/287/68 81/286/68 103/285/68
f 81/300/69 82/299/69 85/298/69 87/297/69 89/296/69 91/295/69 93/294/69 95/293/69 97/292/69 99/291/69 101/290/69 103/289/69
f 104/312/70 102/311/70 100/310/70 98/309/70 96/308/70 94/307/70 92/306/70 90/305/70 88/304/70 86/303/70 83/302/70 84/301/70
